<?xml version="1.0" encoding="UTF-8" standalone="no"?>
<!-- Created with Inkscape (http://www.inkscape.org/) -->

<svg
   xmlns:dc="http://purl.org/dc/elements/1.1/"
   xmlns:cc="http://creativecommons.org/ns#"
   xmlns:rdf="http://www.w3.org/1999/02/22-rdf-syntax-ns#"
   xmlns:svg="http://www.w3.org/2000/svg"
   xmlns="http://www.w3.org/2000/svg"
   version="1.1"
   width="329.50839"
   height="63.943333"
   id="svg2">
  <defs
     id="defs4" />
  <metadata
     id="metadata7">
    <rdf:RDF>
      <cc:Work
         rdf:about="">
        <dc:format>image/svg+xml</dc:format>
        <dc:type
           rdf:resource="http://purl.org/dc/dcmitype/StillImage" />
        <dc:title></dc:title>
      </cc:Work>
    </rdf:RDF>
  </metadata>
  <g
     transform="translate(-124.67271,-247.77653)"
     id="layer1">
    <path
       d="m 446.06163,311.20521 c -0.19051,-0.30825 0.2395,-1.68451 0.95559,-3.05835 1.77351,-3.40256 1.12198,-3.73886 -6.45144,-3.32999 -8.45558,0.45648 -11.87504,1.28758 -13.98696,3.3995 -3.15343,3.15342 -3.71814,2.17945 -2.06314,-3.55835 0.98987,-3.4318 2.83707,-5.687 8.86517,-10.82323 l 2.34366,-1.9969 -1.57141,-3.08611 c -0.86427,-1.69735 -3.45312,-6.68892 -5.75298,-11.09237 l -4.18158,-8.00626 6.24941,-2.98528 c 3.43717,-1.6419 6.52387,-2.81565 6.85933,-2.60832 0.98933,0.61144 0.70823,1.57742 -0.89008,3.05868 -0.84865,0.7865 -1.5,2.05828 -1.5,2.92879 0,1.18605 5.88347,14.09171 6.9541,15.25416 0.4455,0.4837 2.17311,-1.43265 3.3223,-3.68526 0.76275,-1.49511 1.12328,-3.21299 1.00615,-4.79409 -0.15959,-2.15418 -0.52209,-2.70206 -2.88255,-4.35665 -3.57446,-2.50557 -3.72199,-3.86224 -0.64165,-5.90072 2.98614,-1.97613 3.98193,-1.99368 6.74105,-0.11882 4.47719,3.04233 5.97443,8.50835 3.67855,13.42936 -1.07145,2.29656 -8.15366,9.70802 -14.27795,14.94174 l -3.6,3.0765 8.68246,0.001 c 7.57461,10e-4 8.7804,0.13517 9.45,1.0509 0.42215,0.57732 0.7649,1.47056 0.76168,1.98499 -0.0103,1.63876 -2.816,6.86646 -4.76878,8.88532 C 447.40431,311.84018 446.65024,312.15761 446.06163,311.20521 Z M 307.7372,292.40753 c -3.95177,-2.10031 -6.2025,-6.01041 -6.50105,-11.294 -0.29602,-5.23896 1.1825,-8.50807 5.50402,-12.16968 6.76216,-5.72957 9.28881,-5.92073 14.34703,-1.08546 1.72371,1.64773 2.25,2.62071 2.25,4.15967 0,1.72516 -0.29385,2.13163 -2.08073,2.87824 -2.86986,1.1991 -4.96149,1.11172 -5.38575,-0.22498 -0.19103,-0.6019 -1.14446,-1.85806 -2.11873,-2.79147 -1.45294,-1.392 -1.93159,-1.56417 -2.66241,-0.95765 -3.57987,2.97104 -2.0025,12.95226 2.36111,14.94046 2.16026,0.98428 3.07928,0.8907 6.10813,-0.62198 2.26713,-1.13226 2.73356,-1.19772 3.20652,-0.45 0.82038,1.29695 0.73876,1.54315 -1.2701,3.83112 C 317.31259,293.38557 312.21603,294.78797 307.7372,292.40753 z m 55.5,0.64945 c -5.74748,-2.04678 -9.56726,-10.72746 -7.49003,-17.02153 1.51488,-4.59011 9.68489,-11.67297 13.4575,-11.66675 2.32076,0.004 7.59067,3.89144 8.40187,6.19806 0.86435,2.45778 -0.0704,3.43129 -5.43211,5.65756 -2.60547,1.08183 -5.41223,2.30773 -6.23723,2.72422 -2.29441,1.15828 -2.22515,3.11199 0.19615,5.53329 2.44606,2.44606 4.52017,2.67907 7.52746,0.84566 3.44895,-2.10267 5.00732,-0.0156 2.4325,3.2577 C 373.27899,292.16302 366.92909,294.37173 363.2372,293.05698 z m 5.36051,-19.21821 1.67635,-0.87834 -1.64934,-1.29737 c -0.90715,-0.71356 -1.98689,-1.29738 -2.39943,-1.29738 -0.92974,0 -2.36302,2.15091 -2.90821,4.36433 l -0.40994,1.66433 2.00711,-0.83862 C 366.01815,275.09448 367.67571,274.32185 368.59771,273.83877 z m -125.65169,18.82691 c -0.33485,-0.11 -0.60883,-0.84736 -0.60883,-1.63857 0,-1.05462 0.423,-1.54473 1.58485,-1.83634 1.36436,-0.34243 2.39279,-2.07608 7.39231,-12.46143 3.1941,-6.63501 6.84977,-14.30455 8.12372,-17.04341 2.2898,-4.92283 2.33974,-4.97769 4.36891,-4.8 2.05125,0.17963 2.05839,0.19112 10.54143,16.97975 7.37029,14.58642 8.71388,16.87726 10.19713,17.38635 3.15732,1.08366 3.39487,-0.014 3.36552,-15.55103 -0.0144,-7.60942 -0.26082,-15.05032 -0.54766,-16.53532 -0.28685,-1.485 -0.29684,-2.97 -0.0222,-3.3 0.27463,-0.33 3.07,-1.95 6.21193,-3.6 6.74794,-3.54371 8.12959,-3.29324 5.03483,0.91273 l -1.95076,2.65121 -0.18518,16.73192 c -0.16732,15.11781 -0.086,16.84151 0.84299,17.86802 0.5655,0.62487 1.39132,1.13612 1.83518,1.13612 0.94576,0 1.03389,0.85495 0.24088,2.33671 -0.51981,0.97127 -1.85748,1.05374 -16.35,1.00799 l -15.78388,-0.0498 -0.18579,-1.60532 c -0.17178,-1.48427 0.0205,-1.63624 2.55,-2.01557 1.50469,-0.22564 2.73579,-0.5223 2.73579,-0.65924 0,-0.13694 -0.81388,-1.86128 -1.80864,-3.83187 l -1.80863,-3.58289 -6.49837,0 c -5.4334,0 -6.65131,0.17208 -7.43161,1.05 -1.19235,1.34153 -2.93472,5.53194 -2.55539,6.14572 0.15917,0.25754 1.25383,0.64917 2.43258,0.87031 1.89461,0.35543 2.12156,0.58951 1.95663,2.01802 l -0.18657,1.61595 -6.44117,0 C 246.45337,292.86568 243.28087,292.77568 242.94602,292.66568 z m 23.39117,-15.99007 c 0,-0.67799 -4.49795,-9.30993 -4.85124,-9.30993 -0.63752,0 -4.20513,8.42338 -3.82684,9.03546 C 258.00679,276.96371 266.33719,277.22718 266.33719,276.67561 z m 57.27831,15.96837 c -0.68199,-0.68198 -0.15868,-2.15155 1.2217,-3.43085 l 1.5,-1.39015 -0.0143,-14.27865 c -0.008,-7.85326 -0.26258,-15.34941 -0.56601,-16.65812 -0.31027,-1.33816 -0.32516,-2.65103 -0.034,-3 0.28474,-0.34129 3.08837,-1.97053 6.2303,-3.62053 4.42229,-2.32238 5.87513,-2.83877 6.43213,-2.2862 0.55858,0.55413 0.36879,1.13063 -0.84849,2.57728 -2.25732,2.68267 -2.86152,5.69575 -2.66934,13.31159 l 0.16977,6.72761 2.1,-1.79151 c 5.15605,-4.39862 7.30612,-4.80597 10.79245,-2.04474 3.86914,3.06441 4.40015,4.94964 3.90443,13.86191 l -0.42882,7.70967 1.59524,0.72684 c 1.21871,0.55528 1.55293,1.09042 1.41597,2.2672 -0.17856,1.53423 -0.20309,1.5406 -6.17927,1.60452 -3.3,0.0353 -6.4725,-0.0504 -7.05,-0.19043 -1.53186,-0.37145 -1.28382,-2.04223 0.51628,-3.47757 1.47559,-1.1766 1.58439,-1.63095 1.87902,-7.84721 0.30435,-6.42118 0.27168,-6.64595 -1.21738,-8.37363 l -1.53012,-1.77533 -1.6989,1.26272 c -2.68404,1.99492 -3.93566,4.7092 -4.25966,9.23754 -0.36996,5.17067 0.0448,6.81762 1.93389,7.67833 1.24004,0.565 1.41365,0.92294 0.99569,2.05286 -0.4847,1.31036 -0.79122,1.36975 -7.20922,1.39685 C 326.91015,292.90955 323.76857,292.79705 323.6155,292.64398 z m 54.94521,0.0295 c -1.12289,-0.37429 -0.65442,-2.13794 0.89921,-3.38529 1.35268,-1.08602 1.5603,-1.79205 1.85927,-6.32254 0.2323,-3.52007 0.0441,-6.47296 -0.60751,-9.5319 -0.51924,-2.43754 -0.79681,-4.67017 -0.61682,-4.96141 0.46925,-0.75925 6.03299,-3.50669 7.10128,-3.50669 1.12325,0 2.14106,1.83523 2.14106,3.86056 0,1.77474 0.69615,1.97394 1.87653,0.53696 1.43039,-1.74133 6.09538,-4.39752 7.72323,-4.39752 1.62808,0 4.61483,2.65315 5.98491,5.31644 l 0.72866,1.41643 2.19333,-2.07232 c 3.30183,-3.11965 5.80145,-4.66055 7.56025,-4.66055 2.13561,0 4.93712,2.16694 6.71667,5.19527 1.42166,2.4193 1.45371,2.73358 1.05307,10.32264 l -0.41322,7.82737 1.58828,0.72367 c 1.56053,0.71102 1.9994,1.9896 1.1291,3.28941 -0.3501,0.52289 -10.39274,0.75084 -13.49081,0.30622 -1.09551,-0.15722 -0.33099,-2.54453 1.01063,-3.15582 1.24801,-0.56863 1.52022,-1.22183 1.8699,-4.48713 0.65787,-6.1431 0.12316,-11.45234 -1.25863,-12.49727 -1.67056,-1.26329 -1.99767,-1.17092 -4.22786,1.19376 -2.37173,2.51478 -3.23616,5.2591 -3.24069,10.28839 -0.003,3.36974 0.15451,3.83313 1.73402,5.1 1.37132,1.09989 1.63492,1.65984 1.2511,2.65763 -0.45798,1.19057 -0.86466,1.25598 -6.98738,1.12383 -3.5756,-0.0772 -6.70359,-0.17353 -6.95109,-0.21414 -1.04347,-0.1712 -0.32743,-2.22649 1.2,-3.44442 1.62792,-1.29806 1.65,-1.40789 1.65,-8.20954 0,-5.80619 -0.17104,-7.08289 -1.08409,-8.09179 -1.36733,-1.51088 -2.97058,-1.13055 -4.89996,1.16239 -1.88411,2.23913 -2.70841,5.26015 -2.7126,9.94157 -0.003,3.43006 0.13841,3.83685 1.74869,5.02738 1.3861,1.02478 1.65369,1.56115 1.28117,2.56796 -0.43897,1.18641 -0.90157,1.27315 -6.82854,1.28046 C 382.04516,292.87783 378.90364,292.78783 378.56071,292.67352 Z"
       id="path942"
       style="fill:#cd2103;fill-opacity:1" />
    <path
       d=""
       id="path938"
       style="fill:#000000" />
    <path
       d="m 210.92219,295.04502 c -3.42425,-0.72969 -6.01603,-1.83574 -8.53627,-3.64287 -4.26175,-3.05587 -6.75286,-6.39273 -8.2295,-11.02351 -3.67706,-11.53131 2.5429,-23.54285 14.19245,-27.40745 2.1969,-0.7288 3.13794,-0.85546 6.43329,-0.86591 4.47891,-0.0142 6.32349,0.43017 10.29326,2.47976 4.70451,2.42893 8.9154,7.46266 10.54483,12.60535 0.59037,1.86327 0.71343,3.00068 0.71343,6.59413 0,3.70964 -0.11044,4.6706 -0.75785,6.59412 -2.63483,7.82831 -9.00599,13.35134 -17.09453,14.81891 C 215.4241,295.75224 214.11718,295.72587 210.92219,295.04502 z m 8.68494,-1.14108 c 9.71483,-2.30337 16.41219,-11.34693 15.83172,-21.37785 -0.62096,-10.73052 -8.73683,-18.84419 -19.56191,-19.55661 l -2.76519,-0.18199 0.031,1.40156 c 0.039,1.75935 -0.68445,2.02564 -1.97184,0.72584 -0.49065,-0.49538 -1.27908,-0.9221 -1.75206,-0.94826 -0.78835,-0.0436 -0.83154,0.0149 -0.51858,0.70172 0.18776,0.4121 0.75569,0.89369 1.26205,1.07021 1.0068,0.35097 1.18836,1.01845 0.44488,1.63549 -0.36049,0.29918 -0.72288,0.30872 -1.49549,0.0394 -1.52497,-0.53161 -2.68519,-0.4315 -3.3362,0.28785 -0.80033,0.88435 -2.27887,0.8418 -2.79454,-0.0804 -0.39309,-0.70298 -0.40956,-0.69145 -0.57423,0.40208 -0.14608,0.97004 -0.30306,1.13886 -1.13453,1.22007 -1.21065,0.11824 -1.91113,0.35349 -1.69527,0.56936 0.0913,0.0913 1.13138,0.0117 2.31134,-0.17676 2.50208,-0.39971 3.04542,-0.19631 3.53682,1.32401 0.24631,0.76204 0.57476,1.11588 1.10553,1.19102 0.6925,0.098 0.73667,0.0229 0.53261,-0.90618 -0.29301,-1.33404 0.50818,-2.25653 1.95979,-2.25653 0.58134,0 1.14645,0.14475 1.25579,0.32166 0.10933,0.17692 0.5326,0.32167 0.94059,0.32167 1.02864,0 2.43688,1.18623 2.43688,2.05268 0,0.39564 -0.21252,1.00032 -0.47226,1.34373 -0.72481,0.95828 -0.59202,1.52779 0.6331,2.71521 1.34527,1.3039 1.40255,2.04861 0.32166,4.18164 -0.44229,0.87282 -0.80416,1.8715 -0.80416,2.21929 0,0.34984 -0.28741,0.72356 -0.64333,0.83653 -0.82615,0.26221 -0.82615,1.00535 0,1.44749 0.71882,0.3847 0.87466,1.28665 0.22231,1.28665 -0.23156,0 -0.70199,-0.21252 -1.04541,-0.47226 -0.73644,-0.55701 -2.43879,-0.64049 -2.93534,-0.14394 -0.59572,0.59573 -0.0782,1.56634 1.36431,2.55882 1.10358,0.75929 1.7273,0.95237 3.07648,0.95237 1.54499,0 1.63792,-0.0401 1.06787,-0.46084 -0.51334,-0.37888 -0.54996,-0.53622 -0.20589,-0.88458 0.30237,-0.30616 1.68586,-0.43679 4.9858,-0.47074 2.51201,-0.0259 5.00487,-0.14593 5.53968,-0.26685 0.75712,-0.17118 1.1064,-0.0718 1.57776,0.44908 0.44202,0.48843 0.99544,0.66893 2.05093,0.66893 1.23366,0 1.60838,0.16765 2.5563,1.1437 0.69586,0.71649 1.0478,1.34729 0.94222,1.68874 -0.34909,1.12893 -1.7235,4.21439 -2.05934,4.62305 -0.19222,0.23392 -0.39954,0.77914 -0.46072,1.21163 -0.0745,0.52665 -0.84663,1.34993 -2.33799,2.4929 -1.88804,1.44697 -2.43572,1.70656 -3.60049,1.70656 -1.00201,0 -1.49381,0.17144 -1.81748,0.63355 -0.91584,1.30753 -5.06329,2.56801 -5.05958,1.53769 7.1e-4,-0.22114 0.79691,-1.29379 1.76915,-2.38364 1.42315,-1.59532 1.76771,-2.19942 1.76771,-3.09923 0,-0.86282 -0.20058,-1.24911 -0.87964,-1.69404 -0.4838,-0.317 -1.43739,-1.09359 -2.11908,-1.72574 -0.6817,-0.63215 -1.45344,-1.27049 -1.715,-1.41853 -0.30284,-0.17141 -0.4386,-0.63867 -0.37381,-1.28666 0.0999,-0.99878 0.0721,-1.02103 -1.50659,-1.20956 -1.09808,-0.13114 -1.80961,-0.0546 -2.24281,0.24124 -1.39032,0.94952 -5.93092,0.0322 -7.24629,-1.46388 -0.44229,-0.50307 -1.04337,-0.99578 -1.33572,-1.09493 -0.29236,-0.0991 -1.31238,-1.16727 -2.26672,-2.37362 -2.14058,-2.70584 -3.16972,-5.63445 -2.56636,-7.30303 0.57989,-1.60364 0.46897,-2.67151 -0.33607,-3.23537 -0.39319,-0.27541 -0.81063,-0.50074 -0.92763,-0.50074 -0.25528,0 -1.38588,2.80778 -1.94286,4.82497 -0.21982,0.79612 -0.39595,3.03973 -0.39141,4.9858 0.007,3.00467 0.14131,3.92595 0.8904,6.10854 1.85404,5.40206 5.43529,9.6187 10.19128,11.99941 1.48824,0.74496 3.50201,1.56169 4.47505,1.81495 C 212.09513,294.46655 217.15656,294.48497 219.60713,293.90394 z m -7.33593,-16.78681 c -0.30019,-0.30019 0.0625,-0.7593 0.59996,-0.7593 0.25493,0 0.46351,0.21713 0.46351,0.4825 C 213.33467,277.32483 212.65564,277.50157 212.2712,277.11713 z m 8.57151,13.12872 c 0.34711,-0.38356 1.19905,-0.73093 2.09477,-0.85412 1.9467,-0.26774 5.13273,-2.49474 5.40614,-3.77882 0.10275,-0.48256 0.38649,-1.04309 0.63054,-1.24564 0.24405,-0.20254 0.44374,-0.55185 0.44374,-0.77625 0,-0.22438 0.27668,-1.02597 0.61485,-1.7813 0.61197,-1.36688 0.61169,-1.37761 -0.0605,-2.28678 -0.55444,-0.74992 -0.91589,-0.91345 -2.01896,-0.91345 -0.82095,0 -1.64204,-0.23288 -2.11074,-0.59865 -0.51344,-0.40067 -0.97988,-0.51865 -1.41046,-0.35673 -0.35383,0.13304 -2.42219,0.16304 -4.59636,0.0667 l -3.95303,-0.17525 0.10841,1.93906 c 0.10244,1.83233 0.1876,2.01112 1.54723,3.24849 0.79135,0.7202 1.94243,1.64787 2.55796,2.0615 0.96387,0.64771 1.13238,0.95342 1.21449,2.20347 0.0823,1.2523 -0.0666,1.66346 -1.08494,2.99719 C 219.07545,291.50188 219.53649,291.6892 220.84271,290.24585 z m -10.40302,-10.9392 c 0,-0.1473 -0.5606,-0.71834 -1.24578,-1.26896 -1.17518,-0.9444 -1.77672,-2.25992 -1.43755,-3.14381 0.1762,-0.45915 1.53399,-1.10936 2.31662,-1.10936 0.83252,0 2.09156,-1.50624 3.0573,-3.6576 1.05549,-2.35128 1.05659,-2.79091 0.009,-3.76503 -1.24398,-1.15721 -1.50464,-2.08275 -0.91026,-3.23215 0.80163,-1.55018 0.51274,-2.32052 -0.9856,-2.62811 -3.53979,-0.72667 -3.41095,-0.74647 -3.32625,0.5111 0.084,1.24728 -0.47318,2.15686 -1.3212,2.15686 -0.66006,0 -1.78909,-1.17168 -2.09221,-2.17124 -0.25541,-0.84224 -0.16984,-0.83261 -3.16998,-0.35685 -1.69986,0.26957 -2.54827,0.58418 -3.19819,1.186 -0.84598,0.78339 -1.17594,1.66375 -0.62356,1.66375 0.14355,0 0.5778,0.29514 0.96499,0.65586 0.79726,0.74276 0.95311,2.62707 0.33034,3.99392 -0.30254,0.66398 -0.25817,1.17193 0.23313,2.66886 0.65863,2.00677 3.24685,5.49255 4.47908,6.03236 0.40625,0.17797 1.01359,0.66312 1.34963,1.07811 C 205.72378,278.9752 210.43969,280.1489 210.43969,279.30665 z m -4.83236,-22.61575 c 0.92297,-0.68238 2.09088,-0.71521 3.64181,-0.10236 0.33654,0.13298 0.13467,-0.22068 -0.4825,-0.84533 -0.64341,-0.65121 -1.31433,-1.03662 -1.70443,-0.97908 -1.0425,0.15375 -3.37748,1.63775 -3.37748,2.14656 C 203.68473,257.58474 204.52887,257.48824 205.60733,256.6909 z m 6.76235,-2.52792 c 0,-0.3574 -0.21445,-0.64333 -0.4825,-0.64333 -0.48971,0 -0.65982,0.68045 -0.26805,1.07222 C 212.02693,254.99967 212.36968,254.80382 212.36968,254.16298 Z"
       id="path1037-7"
       style="fill:#000000" />
    <g
       id="text4224"
       style="font-size:55px;font-style:normal;font-variant:normal;font-weight:normal;font-stretch:normal;text-align:start;line-height:0%;letter-spacing:0px;word-spacing:0px;writing-mode:lr-tb;text-anchor:start;fill:#000000;fill-opacity:1;stroke:none;font-family:Leckerli One;-inkscape-font-specification:'Leckerli One, Normal'">
      <path
         d="m 135.50771,268.17132 q -2.2,5.39 -2.2,10.065 0,4.62 1.87,6.82 1.925,2.2 6.16,2.2 2.53,0 4.455,-1.815 0.605,-4.51 0.99,-5.995 0.935,-3.63 2.86,-3.63 1.54,0 2.915,2.145 1.375,2.09 1.32,3.575 0,2.475 -1.98,9.185 3.85,-2.915 8.855,-8.635 0.715,-0.825 1.21,-0.825 0.77,0 0.77,1.815 0,3.52 -3.52,7.535 -3.52,3.96 -9.35,6.325 -0.44,1.045 -0.715,1.98 -0.275,0.935 -0.715,2.255 -0.44,1.32 -1.54,2.86 -1.1,1.595 -2.75,2.695 -3.52,2.42 -8.085,2.42 -4.51,0 -7.59,-2.035 -3.025,-1.98 -3.025,-5.5 0,-1.705 1.65,-2.805 1.65,-1.1 4.29,-1.925 2.64,-0.77 5.94,-1.375 3.3,-0.605 6.6,-1.375 0.44,-1.265 0.66,-2.365 -2.145,1.65 -5.28,1.65 -6.545,0 -10.285,-2.695 -4.345,-3.135 -4.345,-9.79 0,-8.69 4.4,-16.5 -1.32,-1.54 -2.145,-3.19 -0.825,-1.705 -0.825,-2.585 0,-1.54 1.1,-1.485 0.715,0 1.65,0.88 0.935,0.88 1.485,1.485 0.605,0.605 1.265,1.1 2.86,-3.63 6.71,-5.885 3.85,-2.255 8.47,-2.255 4.62,0 7.205,1.705 2.585,1.705 2.585,5.94 0,4.235 -3.3,7.04 -3.245,2.805 -9.075,2.805 Q 140.18271,269.98632 135.50771,268.17132 z m 1.815,-3.74 q 3.025,1.32 7.315,1.32 2.64,0 4.235,-1.43 1.595,-1.43 1.595,-3.08 0,-1.705 -1.1,-2.475 -1.045,-0.825 -2.805,-0.825 Q 141.28271,257.94132 137.32271,264.43132 z m -1.87,40.48 q 3.74,0 6.545,-5.61 -3.025,0.77 -5.115,1.21 -2.09,0.44 -3.41,0.77 -1.265,0.33 -1.87,0.66 -0.55,0.33 -0.55,0.935 0,1.045 1.375,1.485 Q 133.85771,304.85632 135.45271,304.91132 Z"
         id="path816"
         style="font-family:Leckerli One;-inkscape-font-specification:'Leckerli One, Normal'" />
      <path
         d="m 176.36584,269.54632 q 4.785,0 4.785,2.42 0,2.805 -5.5,2.805 -1.21,0 -2.64,-0.44 -1.595,1.1 -2.475,2.75 -0.825,1.65 -0.825,4.785 0,3.08 2.42,4.565 2.475,1.485 5.775,1.485 3.355,0 5.39,-1.045 2.09,-1.1 3.63,-2.365 1.54,-1.265 2.475,-2.31 0.99,-1.1 1.43,-1.1 0.44,0 0.715,0.605 0.275,0.55 0.275,1.485 0,4.4 -4.895,7.755 -4.84,3.3 -11.605,3.3 -10.56,0 -13.695,-6.105 -1.1,-2.145 -1.1,-5.17 0,-7.865 7.865,-11 -4.015,-2.805 -4.015,-8.47 0,-2.695 1.485,-5.005 -1.375,-1.54 -2.255,-3.245 -0.825,-1.705 -0.825,-2.585 0,-1.54 1.1,-1.54 0.77,0 1.87,1.21 1.155,1.155 1.87,1.87 0.715,0.715 1.485,1.155 4.675,-2.86 11,-2.86 6.325,0 8.415,3.52 0.77,1.32 0.77,3.245 0,2.915 -2.53,4.895 -2.53,1.98 -6.655,1.98 -4.125,0 -7.7,-2.64 -0.055,0.22 -0.055,0.44 l 0,1.21 q 0,0.99 0.605,2.365 0.66,1.32 1.595,2.2 Q 175.37584,269.54632 176.36584,269.54632 z m 6.82,-9.46 q 0,-2.145 -3.52,-2.145 -3.52,0 -5.665,2.145 2.97,1.815 6.05,1.815 Q 183.18584,261.90132 183.18584,260.08632 Z"
         id="path818"
         style="font-family:Leckerli One;-inkscape-font-specification:'Leckerli One, Normal'" />
    </g>
  </g>
</svg>
